#N canvas 0 25 1920 965 10;
#X obj 560 -132 openpanel;
#X obj 587 696 readsf~ 2;
#X msg 681 458 start;
#X obj 662 696 line~;
#X obj 647 748 *~;
#X obj 587 748 *~;
#X obj 560 254 t b a;
#X msg 568 -102 set symbol \, add2 \$1;
#X msg 560 225 open \$1 \$2;
#X obj 560 195 pack s f;
#X obj 9 267 loadbang;
#X obj 991 -87 soundfiler;
#X obj 588 56 int;
#X obj 588 26 *;
#X obj 578 86 t b f;
#X obj 312 537 t b f;
#X msg 312 577 0;
#X msg 662 558 1;
#X obj 312 458 i;
#X obj 662 398 delay 2;
#X text 710 398 start 2 ms after vol taken down;
#X obj 1007 -22 t b f;
#X obj 339 617 pipe 10;
#X msg 662 592 \$1 10;
#X obj 342 458 + 0;
#X text 672 283 start at new address;
#X obj 635 284 t b b;
#X obj 635 326 delay 1000;
#X text 992 -146 30 mins 44100 = 7.938e+07 samples (mono);
#X text 341 577 fade out the old part \, 10 ms;
#X text 689 558 and fade up the new part \, 10 ms;
#X text 1057 -181 this array is just to check how many samples there
are in the file (so don't worry that it's mono);
#X msg 991 -117 read -resize -maxsize 8e+07 \$1 orange;
#N canvas 0 50 450 300 orange 0;
#N canvas 0 50 450 250 (subpatch) 0;
#X array orange 352800 float 2;
#X coords 0 1 352800 -1 200 140 1;
#X restore 100 20 graph;
#X restore 991 -177 pd orange;
#X obj 1048 143 unpack f;
#X text 1102 144 samplerate;
#X obj 991 178 / 44100;
#X obj 991 208 * 1000;
#X text 1034 210 convert to ms;
#X obj 587 777 outlet~;
#X obj 647 777 outlet~;
#X obj 130 151 bng 15 250 50 0 open empty open-a-wav-file 17 7 0 10
-262130 -1 -1;
#X obj 200 341 bng 15 250 50 0 empty empty onward! 17 7 0 10 -204786
-1 -1;
#X floatatom 200 232 5 1 10000 1 segments - amount-of-segments;
#X floatatom 200 312 5 0 9999 1 segments - segments-per-rotation;
#X obj 110 111 cnv 15 180 25 empty empty orange 20 12 0 14 -261682
-1 0;
#X obj 110 191 cnv 15 180 25 empty empty segments 20 12 0 14 -203904
-1 0;
#X obj 110 271 cnv 15 180 25 empty empty rotate 20 12 0 14 -261234
-1 0;
#X obj 991 11 / 1;
#X text 615 189 "Open" takes a filename \, then an onset in sample
frames, f 44;
#X text 1046 -27 the size of each segment in samples = (total samples
/ amount of segments);
#X text 1041 172 segment length in seconds = (segment size in samples
/ samplerate);
#X text 614 27 position of playhead = (segment# * segment size in samples)
;
#X obj 357 438 r segments-per-rotation;
#X obj 1007 -52 r amount-of-segments;
#X obj 333 487 r amount-of-segments;
#X obj 339 648 s segment#;
#X obj 588 -14 r segment#;
#X text 702 324 waits the length of one segment \, then starts a rotation
\, which calls for a new segment#;
#X text 389 617 waits 10 ms \, then send next segment#;
#X obj 560 -162 r open;
#X msg 49 217 10;
#X msg 51 297 1;
#X obj 312 507 % 10;
#X obj 701 777 outlet;
#X obj 991 777 outlet;
#X obj 662 428 t b b b;
#X text 130 232 divide into;
#X text 136 312 play every;
#X msg 568 116;
#X connect 0 0 7 0;
#X connect 0 0 9 0;
#X connect 0 0 32 0;
#X connect 1 0 5 0;
#X connect 1 1 4 0;
#X connect 2 0 1 0;
#X connect 3 0 4 1;
#X connect 3 0 5 1;
#X connect 4 0 40 0;
#X connect 5 0 39 0;
#X connect 6 0 26 0;
#X connect 6 1 1 0;
#X connect 7 0 69 0;
#X connect 8 0 6 0;
#X connect 9 0 8 0;
#X connect 10 0 61 0;
#X connect 10 0 62 0;
#X connect 11 0 48 0;
#X connect 11 1 34 0;
#X connect 12 0 14 0;
#X connect 13 0 12 0;
#X connect 14 0 69 0;
#X connect 14 1 9 1;
#X connect 15 0 16 0;
#X connect 15 1 22 0;
#X connect 16 0 23 0;
#X connect 17 0 23 0;
#X connect 18 0 24 0;
#X connect 18 0 63 0;
#X connect 19 0 66 0;
#X connect 21 0 48 0;
#X connect 21 1 48 1;
#X connect 22 0 56 0;
#X connect 23 0 3 0;
#X connect 24 0 18 1;
#X connect 26 0 27 0;
#X connect 26 1 19 0;
#X connect 27 0 42 0;
#X connect 32 0 11 0;
#X connect 34 0 36 1;
#X connect 36 0 37 0;
#X connect 37 0 27 1;
#X connect 37 0 65 0;
#X connect 42 0 18 0;
#X connect 48 0 13 1;
#X connect 48 0 36 0;
#X connect 53 0 24 1;
#X connect 54 0 21 0;
#X connect 55 0 63 1;
#X connect 57 0 13 0;
#X connect 60 0 0 0;
#X connect 61 0 43 0;
#X connect 62 0 44 0;
#X connect 63 0 15 0;
#X connect 66 0 17 0;
#X connect 66 1 2 0;
#X connect 66 2 64 0;
#X connect 69 0 9 0;
#X coords 0 -1 1 1 200 280 2 100 100;
